<?xml version="1.0" encoding="UTF-8"?>
<svg version="1.1" xmlns="http://www.w3.org/2000/svg" width="535" height="315">
<path d="M0 0 C176.55 0 353.1 0 535 0 C535 103.95 535 207.9 535 315 C358.45 315 181.9 315 0 315 C0 211.05 0 107.1 0 0 Z " fill="#FEFEFE" transform="translate(0,0)"/>
<path d="M0 0 C9.51019895 -0.06967391 19.02030931 -0.12289928 28.53070831 -0.15543652 C32.94732209 -0.17105696 37.36376054 -0.19222864 41.78027344 -0.22631836 C46.04670421 -0.25904157 50.31296691 -0.27688023 54.57951355 -0.28463173 C56.20292301 -0.29015206 57.82632383 -0.30093175 59.44966125 -0.31719017 C77.75955548 -0.49318997 77.75955548 -0.49318997 83.83984375 4.515625 C88.35146858 11.64431335 88.72762468 20.1976596 87.6953125 28.4296875 C85.87618256 34.63466498 80.65015608 38.78853789 76 43 C76.48082031 43.73605469 76.96164062 44.47210938 77.45703125 45.23046875 C79.92634595 49.66273236 79.98110045 53.05075443 79 58 C77.96577223 60.86157942 76.71378563 63.58170104 75.375 66.3125 C75.04459717 66.99417236 74.71419434 67.67584473 74.3737793 68.37817383 C70.62849334 75.54188122 65.66491332 79.21275879 58 82 C53.61772277 83.1358222 49.30971242 83.13484889 44.81323242 83.11352539 C44.00295593 83.11367142 43.19267944 83.11381744 42.35784912 83.1139679 C39.69036138 83.11327347 37.02294423 83.10550312 34.35546875 83.09765625 C32.5017348 83.0957904 30.64800036 83.09436728 28.79426575 83.09336853 C23.92317333 83.08955651 19.05211088 83.07973746 14.18103027 83.06866455 C9.20727951 83.05842215 4.2335239 83.05386485 -0.74023438 83.04882812 C-10.49350273 83.038114 -20.24674887 83.02105338 -30 83 C-28.2612946 77.0617126 -26.42569748 71.19741782 -24.3203125 65.37890625 C-24.07100983 64.68815506 -23.82170715 63.99740387 -23.56484985 63.28572083 C-22.75450218 61.04357166 -21.9399672 58.8029738 -21.125 56.5625 C-20.55495558 54.98976691 -19.98496961 53.41701264 -19.41503906 51.84423828 C-15.23920447 40.33759093 -11.0084338 28.85130926 -6.75 17.375 C-6.46610413 16.60930695 -6.18220825 15.84361389 -5.88970947 15.05471802 C-5.08939428 12.89791024 -4.28729464 10.74177689 -3.484375 8.5859375 C-2.79939941 6.74588135 -2.79939941 6.74588135 -2.10058594 4.86865234 C-1 2 -1 2 0 0 Z " fill="#CB0316" transform="translate(301,148)"/>
<path d="M0 0 C9.26672227 -0.04642599 18.53340425 -0.08192125 27.80021763 -0.10362434 C32.1035887 -0.11404292 36.40687994 -0.12816683 40.71020508 -0.15087891 C44.86639626 -0.17267613 49.02251086 -0.18458311 53.17875481 -0.18975449 C54.76110984 -0.19343792 56.34346089 -0.20063067 57.92578316 -0.21146011 C60.14926195 -0.22606667 62.37242789 -0.22797415 64.59594727 -0.22705078 C66.49123924 -0.23371262 66.49123924 -0.23371262 68.42481995 -0.24050903 C72.94472056 0.06355311 77.26813969 0.66861043 80.92578125 3.48046875 C81.38339844 4.04378906 81.84101563 4.60710937 82.3125 5.1875 C83.01826172 6.01314453 83.01826172 6.01314453 83.73828125 6.85546875 C88.20805508 14.45270043 88.50632063 25.1370754 86.34765625 33.5390625 C83.30790492 40.2969646 77.87056004 44.39632287 71.1875 47.25 C63.50290392 50.04863894 56.16155341 51.30227976 48 51 C52.10265848 55.91163339 56.45047049 60.50639282 61 65 C66.75303219 70.68971406 72.15520952 76.50789701 77 83 C72.44697246 83.17426207 67.89592242 83.30062038 63.34033203 83.38452148 C61.7940893 83.41952406 60.24807491 83.46714551 58.70263672 83.52807617 C44.21014773 84.0847599 44.21014773 84.0847599 39.44140625 79.9453125 C38.26758144 78.65397446 37.12020313 77.33811942 36 76 C34.66931079 74.73343447 33.32387045 73.48220396 31.96484375 72.24609375 C29.94454214 70.33944635 27.92819618 68.42868066 25.91210938 66.51757812 C22.69102524 63.47805169 19.45051654 60.46487668 16.12890625 57.53515625 C15.57404541 57.04539307 15.01918457 56.55562988 14.44750977 56.05102539 C13.02840946 54.80415111 13.02840946 54.80415111 11 55 C9.51723757 58.91531484 8.03941543 62.83247623 6.5625 66.75 C6.14162109 67.86117187 5.72074219 68.97234375 5.28710938 70.1171875 C4.88427734 71.18710938 4.48144531 72.25703125 4.06640625 73.359375 C3.69459229 74.34389648 3.32277832 75.32841797 2.93969727 76.34277344 C1.88482033 79.19214347 1.88482033 79.19214347 1 83 C-8.9 83 -18.8 83 -29 83 C-27.87513861 75.12597024 -27.87513861 75.12597024 -26.46875 71.39526367 C-26.15723495 70.55792191 -25.84571991 69.72058014 -25.52476501 68.85786438 C-25.01750633 67.52636604 -25.01750633 67.52636604 -24.5 66.16796875 C-24.14801041 65.22604172 -23.79602081 64.28411469 -23.43336487 63.31364441 C-22.68234894 61.30545747 -21.92828342 59.29840879 -21.17141724 57.29241943 C-19.21340417 52.10257536 -17.2767726 46.90477369 -15.33984375 41.70703125 C-14.96012924 40.68943726 -14.58041473 39.67184326 -14.18919373 38.62341309 C-10.81331652 29.55259821 -7.60435193 20.43449028 -4.51367188 11.26245117 C-4.20107422 10.33795166 -3.88847656 9.41345215 -3.56640625 8.4609375 C-3.30802979 7.68540527 -3.04965332 6.90987305 -2.78344727 6.11083984 C-1.99359764 3.98275013 -1.02894989 2.02111796 0 0 Z " fill="#010101" transform="translate(409,148)"/>
<path d="M0 0 C3 2 3 2 4 5 C6.34533951 5.76956136 6.34533951 5.76956136 9 6 C11.0179154 4.48656345 11.87469934 3.25060133 13 1 C13.99 1.33 14.98 1.66 16 2 C17.1875 4.5625 17.1875 4.5625 18 7 C22.21900957 7.4361141 22.21900957 7.4361141 25.75 5.5 C26.1625 5.005 26.575 4.51 27 4 C27.66 4 28.32 4 29 4 C29.309375 4.969375 29.61875 5.93875 29.9375 6.9375 C30.69523342 9.84065792 30.69523342 9.84065792 32 11 C34.41583753 11.33374277 34.41583753 11.33374277 37 11 C38.68798827 9.56249809 38.68798827 9.56249809 40 8 C40.66 8 41.32 8 42 8 C42.103125 9.11375 42.20625 10.2275 42.3125 11.375 C42.539375 12.57125 42.76625 13.7675 43 15 C45.67889722 17.27712366 45.67889722 17.27712366 47.9375 16.6875 C48.618125 16.460625 49.29875 16.23375 50 16 C51.33333333 15.66666667 52.66666667 15.33333333 54 15 C54.12375 16.11375 54.2475 17.2275 54.375 18.375 C54.6465813 22.03103677 54.6465813 22.03103677 57 24 C59.22128555 24.02308597 59.22128555 24.02308597 61.625 23.625 C62.85089844 23.45871094 62.85089844 23.45871094 64.1015625 23.2890625 C64.72804687 23.19367188 65.35453125 23.09828125 66 23 C65.96744792 25.05078125 65.93489583 27.1015625 65.90234375 29.15234375 C65.79438816 31.01732141 65.79438816 31.01732141 67 32 C68.51928038 32.07179964 70.04167482 32.08392007 71.5625 32.0625 C72.38878906 32.05347656 73.21507812 32.04445312 74.06640625 32.03515625 C74.70449219 32.02355469 75.34257812 32.01195312 76 32 C75.85691406 32.93972656 75.85691406 32.93972656 75.7109375 33.8984375 C75.60007813 34.71570313 75.48921875 35.53296875 75.375 36.375 C75.25898438 37.18710938 75.14296875 37.99921875 75.0234375 38.8359375 C75.01570312 39.55007812 75.00796875 40.26421875 75 41 C76.95633975 43.41121859 76.95633975 43.41121859 80.625 43.125 C82.295625 43.063125 82.295625 43.063125 84 43 C83.91621094 43.71027344 83.83242188 44.42054687 83.74609375 45.15234375 C83.64425781 46.07144531 83.54242188 46.99054688 83.4375 47.9375 C83.33308594 48.85402344 83.22867188 49.77054688 83.12109375 50.71484375 C83.08113281 51.46894531 83.04117188 52.22304687 83 53 C84.96822886 54.96822886 88.34808709 54.66248381 91 55 C90.67 55.721875 90.34 56.44375 90 57.1875 C88.99396471 60.01697427 88.83022598 62.02895466 89 65 C91.31 65.99 93.62 66.98 96 68 C94.125 71.875 94.125 71.875 93 73 C92.66625723 75.41583753 92.66625723 75.41583753 93 78 C93.99 78.99 94.98 79.98 96 81 C79.5 81 63 81 46 81 C44.35 77.7 42.7 74.4 41 71 C33.05362294 59.85443217 22.33369009 53.65777921 9 51 C-1.14765252 49.95208646 -9.48344108 51.58063034 -19 55 C-21.17578125 55.75390625 -21.17578125 55.75390625 -23 56 C-26 54 -26 54 -26.6875 51.375 C-26.8421875 50.199375 -26.8421875 50.199375 -27 49 C-27.68707031 48.91363281 -28.37414062 48.82726562 -29.08203125 48.73828125 C-36.38117309 47.60007458 -36.38117309 47.60007458 -39.0625 45 C-40.40080112 40.71743643 -40.74852432 36.4658613 -41 32 C-42.83158193 31.27046439 -42.83158193 31.27046439 -45 31 C-46.76673036 31.94982336 -46.76673036 31.94982336 -48.25 33.4375 C-49.61125 34.7059375 -49.61125 34.7059375 -51 36 C-55.86495658 34.47970107 -60.45835134 31.67347181 -64 28 C-64 26.68 -64 25.36 -64 24 C-63.36191406 24.08378906 -62.72382812 24.16757813 -62.06640625 24.25390625 C-61.24011719 24.35574219 -60.41382812 24.45757812 -59.5625 24.5625 C-58.73878906 24.66691406 -57.91507812 24.77132812 -57.06640625 24.87890625 C-56.38449219 24.91886719 -55.70257813 24.95882812 -55 25 C-53.50256881 23.50256881 -53.66797307 22.01175761 -53.4375 19.9375 C-53.293125 18.638125 -53.14875 17.33875 -53 16 C-52.1646875 16.2165625 -52.1646875 16.2165625 -51.3125 16.4375 C-50.549375 16.623125 -49.78625 16.80875 -49 17 C-48.13375 17.226875 -47.2675 17.45375 -46.375 17.6875 C-45.59125 17.790625 -44.8075 17.89375 -44 18 C-41.23776722 15.23776722 -41.42143709 12.79293383 -41 9 C-40.195625 9.4640625 -40.195625 9.4640625 -39.375 9.9375 C-36.55192685 11.20045378 -34.07835216 11.7323172 -31 12 C-28.4345406 9.4345406 -28.45953913 7.52313332 -28 4 C-25.53199953 5.15173355 -23.95216435 6.04783565 -22 8 C-19.48250172 8.14768913 -19.48250172 8.14768913 -17 7 C-15.14083176 4.03292954 -15.14083176 4.03292954 -14 1 C-13.34 1 -12.68 1 -12 1 C-11.79375 1.639375 -11.5875 2.27875 -11.375 2.9375 C-10.10461791 5.34925077 -10.10461791 5.34925077 -6.875 5.75 C-5.451875 5.87375 -5.451875 5.87375 -4 6 C-2.68 4.02 -1.36 2.04 0 0 Z " fill="#050505" transform="translate(178,44)"/>
<path d="M0 0 C0.80037689 -0.00014603 1.60075378 -0.00029205 2.42538452 -0.0004425 C5.06584399 0.00025309 7.70623257 0.00802899 10.34667969 0.01586914 C12.17942262 0.01773457 14.01216606 0.01915789 15.84490967 0.02015686 C20.6650531 0.02397217 25.48516634 0.03379406 30.30529785 0.04486084 C35.22533764 0.05509614 40.14538232 0.05965902 45.06542969 0.06469727 C54.71648461 0.0754172 64.36751714 0.0924818 74.01855469 0.11352539 C73.63926819 0.68222855 73.25998169 1.2509317 72.86920166 1.83686829 C72.09670074 2.9953553 72.09670074 2.9953553 71.30859375 4.17724609 C70.47962585 5.41095444 70.47962585 5.41095444 69.63391113 6.66958618 C68.67892245 8.11442784 67.74159205 9.5716638 66.84558105 11.05380249 C63.45503912 16.59494067 59.6960612 21.1949384 53.17602539 22.82354736 C44.89888195 23.91787666 36.59445061 23.63665073 28.26855469 23.42602539 C25.72171245 23.40901404 23.17482369 23.3978912 20.62792969 23.39282227 C14.42263957 23.36773898 8.2218627 23.2694973 2.01855469 23.11352539 C1.35855469 25.42352539 0.69855469 27.73352539 0.01855469 30.11352539 C3.77015854 31.36406001 7.28584211 31.26830593 11.19433594 31.28930664 C12.8434372 31.31250807 14.49252578 31.33662554 16.14160156 31.36157227 C18.73535619 31.39664621 21.32864476 31.4260129 23.92260742 31.43945312 C26.43042138 31.45498212 28.93688215 31.49522164 31.44433594 31.53930664 C32.2132869 31.53739822 32.98223785 31.53548981 33.77449036 31.53352356 C38.95381157 31.65042496 41.87512394 32.75263311 46.01855469 36.11352539 C51.35394952 42.27771942 53.53339524 49.96890633 53.26464844 58.04711914 C52.19108808 67.06161805 47.60708674 74.1683508 40.83105469 80.05102539 C36.27709662 83.39059464 32.39576045 83.25224549 26.96704102 83.22705078 C26.14730301 83.22719681 25.327565 83.22734283 24.48298645 83.22749329 C21.77215941 83.22679635 19.06140099 83.21901417 16.35058594 83.21118164 C14.47157326 83.20931668 12.59256009 83.20789315 10.71354675 83.20689392 C5.76680154 83.20307487 0.82008567 83.19324977 -4.12664795 83.18218994 C-9.17394616 83.17196269 -14.2212491 83.16739348 -19.26855469 83.16235352 C-29.17286446 83.15162698 -39.07715244 83.13455787 -48.98144531 83.11352539 C-46.72058075 79.39722926 -44.36641817 75.75123039 -41.98144531 72.11352539 C-41.39395508 71.15157257 -40.80646484 70.18961975 -40.20117188 69.19851685 C-37.58617531 65.34159761 -35.63887181 62.62194934 -31.08105469 61.22381592 C-27.591014 60.86046723 -24.23909827 60.83168195 -20.73144531 60.91821289 C-19.47759033 60.91016632 -18.22373535 60.90211975 -16.93188477 60.89382935 C-13.62274718 60.88142292 -10.31773318 60.91172526 -7.00909424 60.96331787 C-3.62354127 61.00540671 -0.23826885 60.99055356 3.14746094 60.98071289 C9.77212866 60.97289981 16.39456231 61.02146163 23.01855469 61.11352539 C23.06097192 58.78057764 23.05948406 56.44649972 23.01855469 54.11352539 C21.23923119 52.33420189 18.86268719 53.00358992 16.49487305 53.00166321 C15.33097046 53.00482796 15.33097046 53.00482796 14.14355469 53.00805664 C12.50161458 52.99458572 10.85968665 52.9795599 9.21777344 52.96313477 C6.6283193 52.94042026 4.04022258 52.92592033 1.45068359 52.93847656 C-15.86765484 53.00012545 -15.86765484 53.00012545 -22.38769531 47.80029297 C-28.48177153 41.35054227 -30.48138506 34.95164161 -30.38769531 26.19165039 C-29.21605061 17.31418858 -23.86615969 9.62452915 -16.98144531 4.11352539 C-11.39223606 0.21407707 -6.69045674 -0.03197062 0 0 Z " fill="#030303" transform="translate(217.9814453125,147.886474609375)"/>
<path d="M0 0 C3.88273215 -0.64712202 5.87756785 -0.77381319 9.17578125 1.5 C13.31631552 5.37560063 15.20537301 8.05592804 16.42553711 13.69433594 C17.55561172 18.23000303 19.41355884 22.53289839 21.125 26.875 C21.85976073 28.74622457 22.5916824 30.61856724 23.3203125 32.4921875 C23.64273926 33.31058105 23.96516602 34.12897461 24.29736328 34.97216797 C25 37 25 37 25 39 C26.98 39 28.96 39 31 39 C31.19335938 38.37351563 31.38671875 37.74703125 31.5859375 37.1015625 C31.97652344 35.87566406 31.97652344 35.87566406 32.375 34.625 C32.75785156 33.40683594 32.75785156 33.40683594 33.1484375 32.1640625 C34 30 34 30 36 28 C38.1875 29.9375 38.1875 29.9375 40 33 C39.53613281 34.90307617 39.53613281 34.90307617 38.640625 37.04296875 C36.75639076 42.22107703 36.49904878 46.90020894 36.5625 52.375 C36.57079834 53.30038574 36.57909668 54.22577148 36.58764648 55.17919922 C36.7590385 62.10929191 37.6395582 67.84749973 41 74 C41.72896484 75.39412109 41.72896484 75.39412109 42.47265625 76.81640625 C48.6365868 87.52678202 57.02153341 92.99726932 68.21484375 97.7734375 C71 99 71 99 74 101 C73.3915625 101.76699219 72.783125 102.53398437 72.15625 103.32421875 C66.22161522 110.82934506 60.37007532 118.39613738 54.5625 126 C53.87671875 126.89549561 53.1909375 127.79099121 52.484375 128.71362305 C49.7563485 132.29348523 47.04559973 135.85133269 44.58984375 139.625 C44.06519531 140.40875 43.54054687 141.1925 43 142 C42.67 142 42.34 142 42 142 C41.505 138.535 41.505 138.535 41 135 C38.09926819 134.32198966 38.09926819 134.32198966 35 134 C34.34 134.66 33.68 135.32 33 136 C32.01 136 31.02 136 30 136 C29.77213542 133.94921875 29.54427083 131.8984375 29.31640625 129.84765625 C29.18113386 127.98859771 29.18113386 127.98859771 28 127 C26.30858344 127.08963062 24.62040398 127.24577676 22.9375 127.4375 C22.01839844 127.53933594 21.09929687 127.64117187 20.15234375 127.74609375 C19.44207031 127.82988281 18.73179688 127.91367188 18 128 C18.01160156 127.36191406 18.02320313 126.72382813 18.03515625 126.06640625 C18.04417969 125.24011719 18.05320313 124.41382813 18.0625 123.5625 C18.07410156 122.73878906 18.08570313 121.91507812 18.09765625 121.06640625 C18.23267348 119.00836062 18.23267348 119.00836062 17 118 C15.48071962 117.92820036 13.95832518 117.91607993 12.4375 117.9375 C11.61121094 117.94652344 10.78492187 117.95554687 9.93359375 117.96484375 C9.29550781 117.97644531 8.65742187 117.98804688 8 118 C8.09539062 117.37351562 8.19078125 116.74703125 8.2890625 116.1015625 C8.39992188 115.28429687 8.51078125 114.46703125 8.625 113.625 C8.74101563 112.81289062 8.85703125 112.00078125 8.9765625 111.1640625 C8.98429687 110.44992188 8.99203125 109.73578125 9 109 C7.04366025 106.58878141 7.04366025 106.58878141 3.375 106.875 C2.26125 106.91625 1.1475 106.9575 0 107 C0.144375 106.443125 0.28875 105.88625 0.4375 105.3125 C0.623125 104.549375 0.80875 103.78625 1 103 C1.226875 102.13375 1.45375 101.2675 1.6875 100.375 C1.790625 99.59125 1.89375 98.8075 2 98 C-0.76223278 95.23776722 -3.20706617 95.42143709 -7 95 C-6.42655063 92.13275314 -6.1385485 91.1385485 -4 89 C-4.32041397 86.39719432 -4.32041397 86.39719432 -5 84 C-7.31 83.34 -9.62 82.68 -12 82 C-10.84826645 79.53199953 -9.95216435 77.95216435 -8 76 C-7.85231087 73.48250172 -7.85231087 73.48250172 -9 71 C-11.96707046 69.14083176 -11.96707046 69.14083176 -15 68 C-13.86695008 64.60085025 -12.87481525 63.94745549 -10 62 C-10.11341534 59.59122743 -10.11341534 59.59122743 -11 57 C-13.49759982 55.30117552 -13.49759982 55.30117552 -16 54 C-16 53.34 -16 52.68 -16 52 C-14.02 51.34 -12.04 50.68 -10 50 C-9.58253392 47.12635209 -9.58253392 47.12635209 -10 44 C-12.44496043 42.28288757 -12.44496043 42.28288757 -15 41 C-15 40.01 -15 39.02 -15 38 C-12.69 37.01 -10.38 36.02 -8 35 C-8.50980331 31.22745547 -9.20700182 29.55012877 -12 27 C-12 26.34 -12 25.68 -12 25 C-9.69 24.34 -7.38 23.68 -5 23 C-4.22197813 20.6984589 -4.22197813 20.6984589 -4 18 C-5.37168238 15.80961577 -5.37168238 15.80961577 -7 14 C-7 13.34 -7 12.68 -7 12 C-5.2984375 11.7834375 -5.2984375 11.7834375 -3.5625 11.5625 C-0.19222799 11.38828522 -0.19222799 11.38828522 1 10 C1.15672777 6.47362528 1.04028969 3.38094149 0 0 Z " fill="#060606" transform="translate(96,89)"/>
<path d="M0 0 C3.7839952 1.37086509 6.87168157 3.108019 10.18359375 5.38671875 C11.18269775 6.07040527 12.18180176 6.7540918 13.21118164 7.45849609 C14.2758667 8.19406738 15.34055176 8.92963867 16.4375 9.6875 C17.55493008 10.4544156 18.67269194 11.22084797 19.79077148 11.98681641 C22.08047419 13.5562095 24.36850516 15.12799463 26.65527344 16.70166016 C30.69610078 19.48080132 34.75044257 22.23997886 38.80517578 24.9987793 C50.61249547 33.03306757 62.39317422 41.10584224 74.125 49.25 C80.23403147 53.48169686 86.36438782 57.68194843 92.5 61.875 C93.45664551 62.53016602 94.41329102 63.18533203 95.39892578 63.86035156 C96.76380127 64.79186035 96.76380127 64.79186035 98.15625 65.7421875 C98.96900391 66.2976123 99.78175781 66.85303711 100.61914062 67.42529297 C102.30601545 68.54099668 104.04056615 69.58608891 105.80273438 70.57861328 C106.89038086 71.28219971 106.89038086 71.28219971 108 72 C108 72.66 108 73.32 108 74 C106.83034207 75.04497358 105.61231908 76.036096 104.375 77 C99.6475473 80.97879916 96.8743249 85.58886563 94 91 C90.64956603 89.54811406 88.49513804 87.7180341 85.953125 85.11328125 C84.8084375 83.9521582 84.8084375 83.9521582 83.640625 82.76757812 C82.85171875 81.95740234 82.0628125 81.14722656 81.25 80.3125 C76.27960258 75.23026863 71.28947793 70.29866064 65.89355469 65.66870117 C62.78110237 62.92584253 59.90078498 59.96312335 57 57 C51.68894195 51.61357955 51.68894195 51.61357955 46.0625 46.5625 C41.97378827 43.10961385 38.26265524 39.29922582 34.5 35.5 C28.91455393 29.82499967 28.91455393 29.82499967 23 24.5 C20.33606097 22.21208143 17.79915947 19.85400556 15.328125 17.359375 C14.65910156 16.68712891 13.99007812 16.01488281 13.30078125 15.32226562 C11.95689225 13.96429779 10.61564389 12.60371045 9.27734375 11.24023438 C8.65472656 10.60923828 8.03210938 9.97824219 7.390625 9.328125 C6.83407227 8.7599707 6.27751953 8.19181641 5.70410156 7.60644531 C3.99613731 5.91424815 3.99613731 5.91424815 1.78808594 4.47949219 C1.19801758 3.99125977 0.60794922 3.50302734 0 3 C0 2.01 0 1.02 0 0 Z " fill="#C90517" transform="translate(81,58)"/>
<path d="M0 0 C23.97972226 0.14231289 23.97972226 0.14231289 30.85546875 5.42578125 C32.78274399 8.07660692 33.12868513 9.7185293 33 13 C30.99405676 15.45440185 28.57817442 17.18101133 26 19 C25.45085937 19.42925781 24.90171875 19.85851562 24.3359375 20.30078125 C20.6499953 23.0510612 20.6499953 23.0510612 18.16015625 22.85546875 C10.68600103 19.8955411 3.60543969 12.47250983 -1 6 C-1.4375 3.125 -1.4375 3.125 -1 1 C-0.67 0.67 -0.34 0.34 0 0 Z " fill="#F6F6F6" transform="translate(115,187)"/>
<path d="M0 0 C2.96350854 1.34209467 3.28163799 3.04945375 4.41235352 6.05053711 C4.8100293 7.10305664 5.20770508 8.15557617 5.61743164 9.23999023 C6.01768555 10.34922852 6.41793945 11.4584668 6.83032227 12.60131836 C7.24991211 13.6912207 7.66950195 14.78112305 8.10180664 15.90405273 C10.14431778 21.43262901 11.4719205 25.04383969 10.01782227 30.91381836 C8.83032227 32.78881836 8.83032227 32.78881836 7.01782227 33.91381836 C1.15644097 35.03027194 -3.24556421 32.03998328 -7.98217773 28.91381836 C-9.98217773 26.91381836 -9.98217773 26.91381836 -10.35717773 23.72631836 C-10.17174219 16.53406833 -8.43449206 7.17681511 -4.09155273 1.39819336 C-1.98217773 -0.08618164 -1.98217773 -0.08618164 0 0 Z " fill="#F4F4F4" transform="translate(106.982177734375,109.086181640625)"/>
<path d="M0 0 C4.82380802 -0.0246519 9.64757967 -0.04283693 14.47143555 -0.05493164 C16.11369464 -0.05997174 17.75594923 -0.06680378 19.39819336 -0.07543945 C21.75375479 -0.08751926 24.10925709 -0.09323139 26.46484375 -0.09765625 C27.20339096 -0.10281754 27.94193817 -0.10797882 28.7028656 -0.11329651 C30.46898088 -0.1134925 32.23497146 -0.06194719 34 0 C35 1 35 1 35.25 4.375 C35 8 35 8 33.84545898 9.72094727 C31.22019075 11.54047105 29.38924244 11.24280825 26.22265625 11.08984375 C11.45376689 10.08545885 11.45376689 10.08545885 -1.18383789 16.35571289 C-3.34082704 18.80408294 -5.22587244 21.2581665 -7 24 C-8 22 -8 22 -7.37915039 19.75341797 C-7.03875732 18.84221191 -6.69836426 17.93100586 -6.34765625 16.9921875 C-5.80141602 15.51298828 -5.80141602 15.51298828 -5.24414062 14.00390625 C-4.85419922 12.97136719 -4.46425781 11.93882812 -4.0625 10.875 C-3.48338867 9.31458984 -3.48338867 9.31458984 -2.89257812 7.72265625 C-1.93513499 5.14583399 -0.97068496 2.57185712 0 0 Z " fill="#F1F1F1" transform="translate(431,169)"/>
<path d="M0 0 C2.31645567 1.70235213 4.18016927 3.25050021 6.1875 5.25 C6.69474609 5.72824219 7.20199219 6.20648438 7.72460938 6.69921875 C10.75188478 9.59692205 13.69235218 12.49558198 16 16 C15.59838867 18.14941406 15.59838867 18.14941406 15 20 C8.1636452 20.18873372 1.8442071 19.55099792 -4.875 18.3125 C-5.81085938 18.16361328 -6.74671875 18.01472656 -7.7109375 17.86132812 C-14.40159879 16.63566819 -14.40159879 16.63566819 -17.1953125 13.66796875 C-18.14973016 10.50356457 -18.2342461 9.0708043 -17 6 C-14.9609375 3.9453125 -14.9609375 3.9453125 -12.375 2.125 C-11.53710938 1.50882812 -10.69921875 0.89265625 -9.8359375 0.2578125 C-6.00347029 -1.44198701 -4.01216474 -1.15642152 0 0 Z " fill="#F6F6F6" transform="translate(229,76)"/>
<path d="M0 0 C0.31640625 2.13671875 0.31640625 2.13671875 0 5 C-1.62974395 7.13664442 -3.18183659 8.92696125 -5.0625 10.8125 C-6.08074009 11.86461628 -7.09766704 12.91800498 -8.11328125 13.97265625 C-8.61037598 14.4845752 -9.1074707 14.99649414 -9.61962891 15.52392578 C-11.46415369 17.49633413 -13.09134643 19.62069873 -14.75 21.75 C-17.27136184 24.66532463 -17.72366496 24.94933858 -21.75 25.6875 C-26.09006211 24.76940994 -26.09006211 24.76940994 -28 22 C-28.35249316 19.39155061 -28.50992477 17.10525299 -28.5 14.5 C-28.52835938 13.82324219 -28.55671875 13.14648438 -28.5859375 12.44921875 C-28.59375 10.46875 -28.59375 10.46875 -28 7 C-24.78843974 4.26551934 -20.98359781 3.16560439 -17 1.875 C-15.989375 1.54242188 -14.97875 1.20984375 -13.9375 0.8671875 C-8.80214435 -0.64883505 -5.2927401 -1.10778281 0 0 Z " fill="#F6F6F6" transform="translate(171,62)"/>
<path d="M0 0 C1.43352212 0.00015908 2.86704998 0.00585132 4.30053711 0.01586914 C5.43041298 0.01799156 5.43041298 0.01799156 6.58311462 0.02015686 C8.99807646 0.02577163 11.41294687 0.03832656 13.82788086 0.05102539 C15.46134307 0.05603849 17.09480672 0.06060173 18.72827148 0.06469727 C22.74067671 0.07574585 26.75301326 0.09302033 30.76538086 0.11352539 C31.42538086 1.76352539 32.08538086 3.41352539 32.76538086 5.11352539 C31.54272461 7.60961914 31.54272461 7.60961914 28.76538086 10.11352539 C24.6229634 10.62035677 20.49149352 10.32279521 16.32788086 10.17602539 C8.50435182 10.13237572 2.37246951 10.14180358 -3.70361328 15.46484375 C-6.0692436 17.90929354 -8.20080397 20.38393135 -10.23461914 23.11352539 C-11.23461914 21.11352539 -11.23461914 21.11352539 -10.72143555 19.06640625 C-10.42930176 18.245354 -10.13716797 17.42430176 -9.83618164 16.57836914 C-9.52165039 15.68698242 -9.20711914 14.7955957 -8.88305664 13.87719727 C-8.54532227 12.94456055 -8.20758789 12.01192383 -7.85961914 11.05102539 C-7.52961914 10.11452148 -7.19961914 9.17801758 -6.85961914 8.21313477 C-3.98338574 0.13980484 -3.98338574 0.13980484 0 0 Z " fill="#FEFAFA" transform="translate(326.234619140625,169.886474609375)"/>
<path d="M0 0 C1.86473641 2.08128644 3.26991034 3.92272097 4.75 6.25 C5.14832031 6.83652344 5.54664063 7.42304688 5.95703125 8.02734375 C9.65788931 13.60999404 9.65788931 13.60999404 10 17 C9.67 17.66 9.34 18.32 9 19 C1.65924792 19.38862805 -5.33124784 18.81566182 -12.5625 17.625 C-13.34802246 17.49891357 -14.13354492 17.37282715 -14.94287109 17.24291992 C-18.54110312 16.61664783 -20.92430308 16.05046462 -24 14 C-24.4375 11.5625 -24.4375 11.5625 -24 9 C-20.71922304 5.93247354 -16.67978175 4.4425089 -12.5625 2.8125 C-11.90701172 2.53986328 -11.25152344 2.26722656 -10.57617188 1.98632812 C-3.48853691 -0.85014765 -3.48853691 -0.85014765 0 0 Z " fill="#F5F5F5" transform="translate(131,165)"/>
<path d="M0 0 C5.09665323 1.58255952 9.90164616 3.60454469 14.75 5.8125 C15.51699219 6.14314453 16.28398438 6.47378906 17.07421875 6.81445312 C22.6536055 9.36881209 22.6536055 9.36881209 24.515625 12.76171875 C24.75539063 13.86966797 24.75539063 13.86966797 25 15 C22.23464203 18.36833076 18.48361969 19.93987532 14.625 21.75 C13.965 22.07871094 13.305 22.40742188 12.625 22.74609375 C9.67558671 24.13854584 7.41731253 25.0136451 4.1328125 24.90625 C2 24 2 24 0.25 20.75 C-1.82591305 14.52226085 -2.68703467 8.57923034 -2 2 C-1.34 1.34 -0.68 0.68 0 0 Z " fill="#F6F6F6" transform="translate(99,144)"/>
<path d="M0 0 C6.86720396 -0.20362875 13.13989575 0.50448187 19.875 1.8125 C20.81085938 1.97814453 21.74671875 2.14378906 22.7109375 2.31445312 C23.608125 2.48525391 24.5053125 2.65605469 25.4296875 2.83203125 C26.63987549 3.05983276 26.63987549 3.05983276 27.87451172 3.29223633 C30.3572629 4.11896452 31.51571512 4.83900958 33 7 C32.94458008 9.05151367 32.94458008 9.05151367 32 11 C30.20581055 12.2043457 30.20581055 12.2043457 27.88671875 13.17578125 C27.05076172 13.52833984 26.21480469 13.88089844 25.35351562 14.24414062 C24.47373047 14.59669922 23.59394531 14.94925781 22.6875 15.3125 C21.38522461 15.8703418 21.38522461 15.8703418 20.05664062 16.43945312 C12.70970957 19.46731343 12.70970957 19.46731343 9 18 C6.9296875 15.8203125 6.9296875 15.8203125 4.875 13.125 C4.19179687 12.24070312 3.50859375 11.35640625 2.8046875 10.4453125 C-1.03403607 5.24392515 -1.03403607 5.24392515 -0.625 2.3125 C-0.41875 1.549375 -0.2125 0.78625 0 0 Z " fill="#F3F3F3" transform="translate(219,99)"/>
<path d="M0 0 C6.31924826 2.39513819 6.31924826 2.39513819 8.83984375 3.9921875 C9.49243164 6.58886719 9.49243164 6.58886719 9.83984375 8.9921875 C6.79057704 11.17796484 3.72346484 13.3372506 0.65234375 15.4921875 C-0.21197266 16.11222656 -1.07628906 16.73226562 -1.96679688 17.37109375 C-2.80791016 17.95761719 -3.64902344 18.54414062 -4.515625 19.1484375 C-5.28543701 19.69306641 -6.05524902 20.23769531 -6.84838867 20.79882812 C-9.54075071 22.18865447 -11.16997211 22.37991398 -14.16015625 21.9921875 C-16.16015625 19.9921875 -16.16015625 19.9921875 -16.20703125 16.98046875 C-15.1634558 4.05935696 -15.1634558 4.05935696 -13.16015625 -1.0078125 C-8.98985655 -3.09296235 -4.21533577 -1.34432216 0 0 Z " fill="#F4F4F4" transform="translate(206.16015625,64.0078125)"/>
<path d="M0 0 C2.5 0.125 2.5 0.125 3.5 1.125 C3.87065267 8.53805345 3.18234919 15.88674454 1.5 23.125 C-2.41949393 27.04449393 -9.22430103 26.18069265 -14.5 26.1875 C-16.16672149 26.17164803 -17.83343119 26.15257191 -19.5 26.125 C-20.28125 23.98828125 -20.28125 23.98828125 -20.5 21.125 C-18.65625 18.29296875 -18.65625 18.29296875 -16 15.3125 C-15.54310791 14.79131592 -15.08621582 14.27013184 -14.61547852 13.7331543 C-13.69161606 12.68200773 -12.76138871 11.63641925 -11.82470703 10.59667969 C-9.99955022 8.56902668 -8.22176071 6.50113347 -6.4375 4.4375 C-2.64943151 0.13247158 -2.64943151 0.13247158 0 0 Z " fill="#F5F5F5" transform="translate(183.5,62.875)"/>
<path d="M0 0 C11.88 0 23.76 0 36 0 C35 7 35 7 32.91918945 8.91918945 C29.31474029 10.25371287 26.0800255 10.37721567 22.29296875 10.29296875 C21.20487663 10.28660149 21.20487663 10.28660149 20.09480286 10.28010559 C17.79198109 10.26339543 15.49005447 10.2257596 13.1875 10.1875 C11.6204554 10.17244316 10.053397 10.1587565 8.48632812 10.14648438 C4.65721043 10.11351731 0.82875666 10.06178992 -3 10 C-2.36738317 6.30973516 -1.42909641 3.57274103 0 0 Z " fill="#FEFAFB" transform="translate(312,200)"/>
<path d="M0 0 C3.9925454 1.42772841 7.21900977 3.34301817 10.7109375 5.73828125 C12.33128906 6.84526367 12.33128906 6.84526367 13.984375 7.97460938 C15.1146178 8.75385626 16.2448259 9.53315348 17.375 10.3125 C18.49710491 11.08050335 19.61949839 11.84808528 20.7421875 12.61523438 C26.20158923 16.35557449 31.63425321 20.12645657 37 24 C33.93109813 25.53445094 31.29905734 24.54984289 28 24 C27.67 25.32 27.34 26.64 27 28 C20.73343728 22.75654956 14.99963505 17.07030393 9.28100586 11.24389648 C8.65718018 10.61169189 8.03335449 9.9794873 7.390625 9.328125 C6.83407227 8.7599707 6.27751953 8.19181641 5.70410156 7.60644531 C3.99613731 5.91424815 3.99613731 5.91424815 1.78808594 4.47949219 C1.19801758 3.99125977 0.60794922 3.50302734 0 3 C0 2.01 0 1.02 0 0 Z " fill="#BD1726" transform="translate(81,58)"/>
<path d="M0 0 C0.495 1.485 0.495 1.485 1 3 C0.16415375 2.83923477 -0.6716925 2.67846954 -1.53286743 2.51283264 C-5.22172558 1.96720399 -8.74555282 1.83921695 -12.47412109 1.79467773 C-13.55808167 1.77982834 -13.55808167 1.77982834 -14.66394043 1.76467896 C-17.03374036 1.73329077 -19.40356029 1.70839706 -21.7734375 1.68359375 C-23.42396543 1.66300459 -25.07448832 1.64200762 -26.7250061 1.62062073 C-31.05515443 1.5656026 -35.38534873 1.51610454 -39.71557617 1.46777344 C-44.1398525 1.41740988 -48.5640626 1.36180158 -52.98828125 1.30664062 C-61.65879806 1.19930708 -70.32937052 1.09780774 -79 1 C-79 0.67 -79 0.34 -79 0 C-69.58569897 -0.15406635 -60.17132885 -0.30224541 -50.75681877 -0.4429636 C-46.38502819 -0.50849238 -42.01328804 -0.57602869 -37.64160156 -0.64819336 C-33.42064739 -0.7177953 -29.19964228 -0.782071 -24.97854996 -0.84269524 C-23.37023106 -0.86672253 -21.76193937 -0.89265067 -20.15368271 -0.92053413 C-17.89660644 -0.95933803 -15.63952695 -0.99130829 -13.38232422 -1.02172852 C-12.09881073 -1.04171402 -10.81529724 -1.06169952 -9.4928894 -1.08229065 C-6.22196622 -1.00522941 -3.20577233 -0.62968945 0 0 Z " fill="#FDE9ED" transform="translate(380,147)"/>
<path d="M0 0 C4.79821659 1.62114502 8.6672859 4.29276759 12.8125 7.125 C13.50537109 7.59292969 14.19824219 8.06085938 14.91210938 8.54296875 C16.61091105 9.69112437 18.30584864 10.84499367 20 12 C18.02 12.99 18.02 12.99 16 14 C16 13.01 16 12.02 16 11 C12.88214887 11.64644661 12.88214887 11.64644661 12 14 C11.46890625 13.45730469 10.9378125 12.91460937 10.390625 12.35546875 C9.68421875 11.64003906 8.9778125 10.92460938 8.25 10.1875 C7.55390625 9.47980469 6.8578125 8.77210937 6.140625 8.04296875 C4.07237511 5.96395299 4.07237511 5.96395299 1.734375 4.42578125 C0.87585938 3.72001953 0.87585938 3.72001953 0 3 C0 2.01 0 1.02 0 0 Z " fill="#B70F1F" transform="translate(81,58)"/>
<path d="M0 0 C0.66 0 1.32 0 2 0 C1.73958333 1.98567708 1.47916667 3.97135417 1.21875 5.95703125 C0.946767 8.15471706 0.946767 8.15471706 1 11 C4.36551123 12.12183708 7.09060232 12.20800968 10.63671875 12.31640625 C11.93544922 12.35830078 13.23417969 12.40019531 14.57226562 12.44335938 C15.94400761 12.48316987 17.31575244 12.52288216 18.6875 12.5625 C20.07097645 12.60570835 21.45444027 12.64932339 22.83789062 12.69335938 C26.22515719 12.79958028 29.61249799 12.90162358 33 13 C33 13.33 33 13.66 33 14 C21.12 14 9.24 14 -3 14 C-2.34 13.67 -1.68 13.34 -1 13 C-1.20625 12.34 -1.4125 11.68 -1.625 11 C-2.13703763 6.90369892 -1.14033701 3.95764021 0 0 Z " fill="#B90A18" transform="translate(315,185)"/>
<path d="M0 0 C1 2 1 2 1 6 C0.13721436 6.00410889 -0.72557129 6.00821777 -1.61450195 6.01245117 C-4.81873532 6.03943555 -8.021652 6.08852168 -11.2253418 6.15258789 C-12.61128963 6.17577078 -13.9974137 6.19016441 -15.38354492 6.19555664 C-17.3770332 6.20484197 -19.37026828 6.24845978 -21.36328125 6.29296875 C-22.56251221 6.3086792 -23.76174316 6.32438965 -24.99731445 6.34057617 C-28.2022611 6.68609072 -28.2022611 6.68609072 -29.71557617 9.4934082 C-30.13943604 10.3205835 -30.5632959 11.14775879 -31 12 C-34.1875 12.8125 -34.1875 12.8125 -37 13 C-35.33333333 11.33333333 -33.66666667 9.66666667 -32 8 C-31.57074219 7.45722412 -31.14148438 6.91444824 -30.69921875 6.35522461 C-28.21258587 4.37199198 -26.27066383 4.63106937 -23.125 4.62890625 C-21.40023438 4.60280273 -21.40023438 4.60280273 -19.640625 4.57617188 C-17.21355319 4.56705733 -14.78646357 4.56184896 -12.359375 4.56054688 C-11.20953125 4.54185547 -10.0596875 4.52316406 -8.875 4.50390625 C-7.82054687 4.50205322 -6.76609375 4.5002002 -5.6796875 4.49829102 C-2.85528576 4.25038573 -2.85528576 4.25038573 -1.1328125 1.96850586 C-0.75898438 1.31889893 -0.38515625 0.66929199 0 0 Z " fill="#B01726" transform="translate(358,175)"/>
<path d="M0 0 C11.88 0 23.76 0 36 0 C35.67 2.31 35.34 4.62 35 7 C34.34 7 33.68 7 33 7 C33 6.01 33 5.02 33 4 C33.66 4 34.32 4 35 4 C35 3.01 35 2.02 35 1 C18.665 1.495 18.665 1.495 2 2 C1.34 3.32 0.68 4.64 0 6 C-0.99 6.495 -0.99 6.495 -2 7 C-1.34 4.69 -0.68 2.38 0 0 Z " fill="#FEEBEA" transform="translate(312,200)"/>
<path d="M0 0 C3 0.125 3 0.125 4 1.125 C4.125 4.125 4.125 4.125 4 7.125 C3 8.125 3 8.125 0.5625 8.3125 C-2 8.125 -2 8.125 -4 6.125 C-4.1875 3.5625 -4.1875 3.5625 -4 1.125 C-3 0.125 -3 0.125 0 0 Z " fill="#F1F1F1" transform="translate(155,187.875)"/>
<path d="M0 0 C1.875 0.75 1.875 0.75 2.875 1.75 C3.0625 4.1875 3.0625 4.1875 2.875 6.75 C2.215 7.41 1.555 8.07 0.875 8.75 C-1.75 8.375 -1.75 8.375 -4.125 7.75 C-4.8125 5.4375 -4.8125 5.4375 -5.125 2.75 C-3.57413519 0.30126608 -2.92569791 -0.34419975 0 0 Z " fill="#EBEBEB" transform="translate(124.125,141.25)"/>
<path d="M0 0 C11.22 0 22.44 0 34 0 C34.66 1.65 35.32 3.3 36 5 C35.34 5.33 34.68 5.66 34 6 C33.34 4.68 32.68 3.36 32 2 C17.15 1.505 17.15 1.505 2 1 C1.67 2.32 1.34 3.64 1 5 C0.01 5.33 -0.98 5.66 -2 6 C-1.34 4.02 -0.68 2.04 0 0 Z " fill="#FDE8E9" transform="translate(323,170)"/>
<path d="M0 0 C0.625 2.375 0.625 2.375 1 5 C-1 7 -1 7 -3.5625 7.1875 C-6 7 -6 7 -7 6 C-7.04080783 4.00041636 -7.04254356 1.99954746 -7 0 C-4.3333581 -1.33332095 -2.83319697 -0.67102033 0 0 Z " fill="#EBEBEB" transform="translate(207,88)"/>
<path d="M0 0 C0.33 0.99 0.66 1.98 1 3 C2.32 3.33 3.64 3.66 5 4 C2.36 6.97 -0.28 9.94 -3 13 C-4.61740075 9.76519849 -3.81514185 6.40687492 -3 3 C-1.4375 1 -1.4375 1 0 0 Z " fill="#C00C1B" transform="translate(181,130)"/>
<path d="M0 0 C-3.49359465 3.59634744 -7.11098131 6.83451967 -11 10 C-10.57781184 8.3501725 -10.13675575 6.70516335 -9.6875 5.0625 C-9.44386719 4.14597656 -9.20023437 3.22945312 -8.94921875 2.28515625 C-8.47935547 1.15400391 -8.47935547 1.15400391 -8 0 C-4.71023192 -1.09658936 -3.28696233 -0.79953138 0 0 Z " fill="#FCECEB" transform="translate(326,183)"/>
<path d="M0 0 C1.9375 0.375 1.9375 0.375 4 1 C4.33 1.66 4.66 2.32 5 3 C5.99 3 6.98 3 8 3 C8 3.66 8 4.32 8 5 C8.66 5 9.32 5 10 5 C9.67 5.99 9.34 6.98 9 8 C4.53367217 8.36213469 4.53367217 8.36213469 2.25 6.8125 C0.71161002 4.58183452 0.35994553 2.6635969 0 0 Z " fill="#C60718" transform="translate(93,68)"/>
<path d="M0 0 C0.66 0.33 1.32 0.66 2 1 C1.36191406 1.69867188 0.72382813 2.39734375 0.06640625 3.1171875 C-0.75988281 4.02726563 -1.58617187 4.93734375 -2.4375 5.875 C-3.26121094 6.77992188 -4.08492187 7.68484375 -4.93359375 8.6171875 C-7.00907942 10.81137927 -7.00907942 10.81137927 -8 13 C-8.66 13 -9.32 13 -10 13 C-8.65515286 8.95838045 -6.9494838 6.61321846 -3.875 3.6875 C-3.15054688 2.99011719 -2.42609375 2.29273438 -1.6796875 1.57421875 C-1.12539062 1.05472656 -0.57109375 0.53523437 0 0 Z " fill="#FBDCDD" transform="translate(187,132)"/>
<path d="M0 0 C1.7541123 1.07666203 3.50312587 2.16163339 5.25 3.25 C6.71179688 4.15492187 6.71179688 4.15492187 8.203125 5.078125 C10.79705245 6.86054442 12.86377619 8.70101628 15 11 C8.25 9.375 8.25 9.375 6 6 C5.01 5.67 4.02 5.34 3 5 C3 4.34 3 3.68 3 3 C2.01 2.67 1.02 2.34 0 2 C0 1.34 0 0.68 0 0 Z " fill="#B71729" transform="translate(170,118)"/>
<path d="M0 0 C0.33 0 0.66 0 1 0 C1 2.31 1 4.62 1 7 C0.01 7.495 0.01 7.495 -1 8 C-1.67939174 9.99571323 -2.34561559 11.99594773 -3 14 C-3.66 14.66 -4.32 15.32 -5 16 C-3.90301833 10.30860098 -2.45946923 5.25432063 0 0 Z " fill="#B51726" transform="translate(294,167)"/>
<path d="M0 0 C0.33 0.66 0.66 1.32 1 2 C-0.0625 4.5625 -0.0625 4.5625 -2 7 C-5.1875 7.8125 -5.1875 7.8125 -8 8 C-5.33333333 5.33333333 -2.66666667 2.66666667 0 0 Z " fill="#BE1628" transform="translate(329,180)"/>
<path d="M0 0 C1.32 0.66 2.64 1.32 4 2 C2.74458443 4.51083114 1.49936512 4.87125446 -1 6 C-1.66 4.68 -2.32 3.36 -3 2 C-2.01 1.34 -1.02 0.68 0 0 Z " fill="#CA0315" transform="translate(104,75)"/>
<path d="M0 0 C1.2065625 0.0309375 1.2065625 0.0309375 2.4375 0.0625 C1.90125 0.619375 1.365 1.17625 0.8125 1.75 C0.35875 2.513125 -0.095 3.27625 -0.5625 4.0625 C0.14707237 6.79648135 0.14707237 6.79648135 1.4375 9.0625 C-1.31911088 6.57265791 -3.16996455 4.85700934 -3.5625 1.0625 C-2.5625 0.0625 -2.5625 0.0625 0 0 Z " fill="#B91222" transform="translate(377.5625,186.9375)"/>
<path d="M0 0 C1.875 0.625 1.875 0.625 4 2 C5.25 5.125 5.25 5.125 6 8 C5.34 8 4.68 8 4 8 C4 7.01 4 6.02 4 5 C2.68 4.67 1.36 4.34 0 4 C0 2.68 0 1.36 0 0 Z " fill="#BD1A2E" transform="translate(381,151)"/>
<path d="M0 0 C2.97 0 5.94 0 9 0 C9 0.33 9 0.66 9 1 C6.69 1 4.38 1 2 1 C1.896875 1.639375 1.79375 2.27875 1.6875 2.9375 C1.460625 3.618125 1.23375 4.29875 1 5 C0.01 5.33 -0.98 5.66 -2 6 C-1.34 4.02 -0.68 2.04 0 0 Z " fill="#FBDFE0" transform="translate(323,170)"/>
<path d="M0 0 C-1.625 5.75 -1.625 5.75 -5 8 C-5 5.69 -5 3.38 -5 1 C-2 0 -2 0 0 0 Z " fill="#B91422" transform="translate(375,215)"/>
<path d="M0 0 C2.97 0.495 2.97 0.495 6 1 C6 2.32 6 3.64 6 5 C5.01 5.33 4.02 5.66 3 6 C3 4.68 3 3.36 3 2 C2.01 2 1.02 2 0 2 C0 1.34 0 0.68 0 0 Z " fill="#C1061B" transform="translate(375,149)"/>
<path d="M0 0 C1 4 1 4 1 7 C-0.32 7.99 -1.64 8.98 -3 10 C-2.01 6.7 -1.02 3.4 0 0 Z " fill="#FDC4C8" transform="translate(318,183)"/>
<path d="M0 0 C3.91402949 1.26941497 5.79072873 2.51167694 8 6 C5 6 5 6 3.61328125 4.6875 C2.40885417 3.125 1.20442708 1.5625 0 0 Z " fill="#BF2837" transform="translate(121,98)"/>
<path d="M0 0 C0.66 0 1.32 0 2 0 C1.34 1.98 0.68 3.96 0 6 C-3.875 4.25 -3.875 4.25 -5 2 C-2.525 2.495 -2.525 2.495 0 3 C0 2.01 0 1.02 0 0 Z " fill="#B52B3A" transform="translate(175,143)"/>
<path d="M0 0 C2.16874252 0.50603992 3.99967627 0.99983813 6 2 C5.67 3.32 5.34 4.64 5 6 C3.35 4.02 1.7 2.04 0 0 Z " fill="#BD1D2B" transform="translate(164,139)"/>
<path d="M0 0 C2.97 1.98 2.97 1.98 6 4 C3 5 3 5 -1 5 C-0.67 3.35 -0.34 1.7 0 0 Z " fill="#BD1325" transform="translate(141,98)"/>
<path d="M0 0 C2.91517292 1.07401108 4.77810176 1.77810176 7 4 C4.625 4.625 4.625 4.625 2 5 C1.34 4.34 0.68 3.68 0 3 C0 2.01 0 1.02 0 0 Z " fill="#B4303E" transform="translate(81,58)"/>
</svg>
